<svg xmlns="http://www.w3.org/2000/svg" version="1.1" xmlns:xlink="http://www.w3.org/1999/xlink" xmlns:svgjs="http://svgjs.dev/svgjs" viewBox="0 0 800 800"><defs><linearGradient x1="50%" y1="0%" x2="50%" y2="100%" id="ssscribble-grad"><stop stop-color="#bf0404ff" stop-opacity="1" offset="0%"></stop><stop stop-color=" hsl(206, 75%, 49%)" stop-opacity="1" offset="100%"></stop></linearGradient></defs><g fill="none" stroke-width="1.5" stroke="url(#ssscribble-grad)" stroke-linecap="round"><path d="M1055.82 271.89C924.46 304.76 770.38 324.16 661.34 332.91 638.22 344.51 701.02 351.69 812.81 362.43 933.79 387.14 1010.69 428.83 1021.55 495.82 968.14 584.22 865.82 695.51 744.79 817.08 622.06 922.7 522.95 996.47 454.51 1014.1 413.81 972.06 397.37 876.1 393.36 755.84 401.88 663.85 407.85 633.01 403.94 687.51 401.7 813.96 385.21 965.82 352.35 1077.4 319.49 1098.22 271.81 1018.39 212.08 878.02 154.01 732.93 88.27 637.71 22.81 618.03 -30.12 673.72 -67.8 772.32 -77.74 873.11 -59.95 952.58 -8.02 980.62 71.63 956.54 149.59 888.92 212.95 793.6 232.15 691.12 187.06 585.51 80.69 494.5 -64.36 421.8 -200.24 359.34 -281.74 311.51 -271.31 272.96 -174.95 238.3 -27.52 205.86 103.82 173 150.79 140.14 97.19 108.41 -24.3 81.1 -163.41 57.67 -253.85 45.72 -263.24 51.23 -192.67 66.98 -66.93 103.86 70.96 158.83 190.25 210.66 262.55 258.81 284.86 283.37 261.49 264.4 212.67 197.41 159.36 83.73 102.71 -51.27 64.71 -179.34 48.56 -259.13 43.26 -263.56 55.84 -187.05 79.94 -54.65 108.11 73.04 140.37 146.22 173.23 125.43 206.09 13.86 238 -131.32 271.8 -245.11 309.67 -286.95 356.87 -237.42 419.12 -121.35 492.22 22.98 584.33 148.42 691.63 224.69 795.58 241.29 891.58 206.49 958.02 143.94 978.78 65.45 945.45 1.33 860.37 -36.42 756.68 -52.77 660.42 -40.36 613.93 -8.12 647.41 38.07 756.56 90.67 908.35 141.04 1042.53 194.26 1102.79 239.03 1055.82 271.89Q1055.82 271.89 1055.82 271.89" opacity="0.17"></path><path d="M1021.82 180.79C901.48 211.3 757.08 237.75 644.37 262.72 600.18 291.09 632.76 324.45 719.83 368.7 833.85 423.94 928.93 496.93 978.25 588.53 975.66 686.49 920.19 790.62 830.74 885.06 720.22 949.99 611.7 974.51 518.83 946.46 440.47 876.07 384.55 773.86 346.24 670.09 320.66 606.89 302.34 604.97 284.16 675.91 269.2 801.64 247.88 941.9 217.37 1043.4 186.85 1066.22 148.59 1000.75 106.01 876.85 66.64 737.66 29.45 629.5 2.16 580.4 -12.41 598.42 -6.74 667 24.58 756.67 70.43 848.64 135.14 910.74 205.67 932.39 255.12 916.44 274.41 865.08 245.23 792.95 164.14 705 41.69 617 -94.69 537.82 -204.13 460.49 -254.07 396.26 -221.65 344.94 -120.72 295.79 17.48 256.27 137.82 225.75 184.99 195.24 144.96 175.18 40.97 166.78 -89.89 160.55 -192.04 169.27 -232.12 193.72 -202.89 220.01 -112.67 257.76 8.34 298.69 135.53 323.79 238.79 331.35 304.97 307.33 332.37 245.69 326.31 147.42 301.26 23.67 259.41 -97.76 220.4 -193.72 192.99 -234.11 167.55 -207.4 158.25 -116.61 164.23 10.78 172.5 122.92 192.56 182.22 223.07 159.43 253.59 57.95 293.11 -76.12 342.38 -190.08 393.95 -249.27 458.76 -230 537.08 -144.45 617.37 -18.31 706.63 111.26 795.5 213.43 867.58 273.26 917.45 284.93 930.05 260.01 903.86 205.56 836.77 145.24 741.36 94.31 652.11 49.73 589.26 26.99 582.4 24.63 644.84 33.25 764.36 55.39 907 84.56 1022.78 117.14 1068.99 150.27 1021.82 180.79Q1021.82 180.79 1021.82 180.79" opacity="0.61"></path><path d="M987.82 195.13C878.33 223.3 744.58 256.98 631.4 297.22 570.56 339.82 575 392.99 633.74 458.56 729.98 528.74 827.79 611.12 900.79 700.87 939.74 783.88 932.35 858.51 886.43 910.66 810.37 930.36 719.32 911.09 627.93 850.98 536.55 768.21 458.52 673.87 395.78 594.71 340.88 561.4 297.93 584.82 263.08 667.51 231.15 789.65 202.03 917.74 173.86 1009.4 145.7 1033.68 119.82 981.58 98.62 874.77 80.36 745.55 72.07 631.51 78.16 559.91 92.08 542.95 123.73 576.36 171.69 641.76 219.68 726.57 270.29 802.42 309.43 854.25 318.44 881.86 292.43 876.77 224.15 845.9 121.83 794.87 -1.24 732.28 -118.12 667.9 -197.51 598.5 -217.98 535.79 -168.01 483.59 -65.7 431.37 62.33 390.5 171.82 362.33 218.62 334.16 190.94 320.03 104.66 319.13 -14.07 318.2 -120.43 329.67 -183.29 350.26 -191.47 365.82 -141.15 382.03 -50.2 389.66 64.18 377.12 176.52 341.79 269.41 277.27 338.25 188.53 376.84 79.29 391.33 -34.84 384.63 -129.57 368.42 -188.25 352.38 -191.96 331 -141.01 318.78 -43.01 319.15 75.32 319.52 171.28 333.37 217.68 361.53 193.43 389.7 101.79 430.85 -20.59 483.61 -131.87 536.35 -203.7 599.81 -211.11 670 -157.16 734.85 -57.36 797.45 62.23 847.57 174.33 876.49 263.78 878.33 316.45 846.41 333.67 790.44 318.44 711.5 284.24 626.43 244.64 564.81 198.3 539.75 162.3 568.58 140.93 652.08 124.18 774.47 122.25 904.08 132.76 1001.23 145.64 1034.62 166.97 987.82 195.13Q987.82 195.13 987.82 195.13" opacity="0.42"></path><path d="M953.82 308.04C855.02 333.86 732.67 370.51 622.01 417.28 549.24 464.68 529.17 522.77 558.84 589.61 629.82 654.75 716.72 723.6 797.09 788.82 877.97 857.09 832.33 837.73 737.1 738.04 659.11 658.38 583.08 583.06 515.11 533 448.37 528.09 392.43 572.12 347.52 661.8 304.05 777.81 269.44 893.32 243.62 975.4 217.8 1000.6 201.99 960.78 196.77 871.18 192.99 755.19 201.96 641.92 223.96 555.72 247.18 509.82 280.69 508.15 318.88 541.79 346.68 603.95 364.9 673.5 362.53 735.39 331.07 788.55 268.74 818.67 176.84 825.85 69.58 816.15 -40.47 789.48 -130.37 753.13 -178.96 708.73 -173.59 663.14 -110.78 621.59 -10.09 578.47 107.02 542.84 205.82 517.02 251.69 491.19 235.02 476.41 166.14 470.83 62.49 463.69 -41.24 462.31 -118.13 461.96 -156.44 453.58 -144.71 437.73 -90.7 407.65 -4.81 360.68 95.47 293.49 193.43 206.49 283.96 110.77 354.78 10.6 404.79 -78.43 437.43 -138.97 454.9 -160.47 464.15 -133.5 464.92 -66.24 466.34 32.32 473.38 138.34 478.75 217.99 493.39 252.59 519.21 227.42 545.03 145.36 580.8 35.08 624.13 -70.96 665.78 -150.69 711.34 -180.04 755.31 -156.21 790.81 -87.24 815.85 11.23 823.01 117.77 812.79 219.58 779.04 299.75 722.35 352.77 658.23 379.07 588.56 382.04 529.55 370.61 502.42 345.18 513.85 318.85 571.08 298.46 666.9 276.36 785.33 265.24 898.95 266.53 977.79 268.46 999.69 282.22 953.82 308.04Q953.82 308.04 953.82 308.04" opacity="0.59"></path><path d="M919.79 465.19C831.47 488.66 721.1 522.27 615.65 564.22 535.77 605.32 496.06 652.74 498.58 702.57 540.69 746.95 606.58 787.17 679.39 816.54 752.57 831.31 807.54 826.92 838.37 799.34 848.19 755.57 833.75 693.29 801.56 620.78 755.15 556.85 701.47 507.52 647.44 487.3 589.57 507.04 537.22 566.17 493.49 658.23 449.54 765.93 415.13 868.63 391.66 941.41 368.19 966.98 356.76 938.22 356.45 865.46 355.91 765.05 365.56 658.42 382.76 565.82 403.62 483.3 407.76 522.38 357.54 599.09 295.94 656.12 213.15 702.25 115.52 733.16 18.27 754.84 -68.66 760.4 -127.97 753.05 -147.7 738.63 -121.35 716.87 -50.52 691.97 45.86 665.08 151.47 638.89 239.79 615.41 284.19 591.94 277.1 572.31 224.85 554.93 138.21 535.57 42.92 514.63 -39.27 488.37 -98.24 455.04 -118.98 410.83 -102.07 352.97 -52.96 285.88 19.59 206.05 102.59 118.26 191.63 34.67 273.8 -40.92 343.55 -95.98 404.32 -120.99 450.99 -110.05 486.17 -60.73 514.04 14.66 536.05 107.93 556.02 199.28 573.9 262.97 593.77 286.98 617.24 261.41 640.71 188.63 666.68 90.68 693.06 -7.95 727.7 -113.83 752.35 -66.65 723.76 56.91 690.19 153.86 641.72 243.97 583.44 318.5 531.21 376.85 486.47 414.94 461.79 436.34 469.32 443.14 511.1 441.58 587.26 437.88 686.66 428.72 795.31 424 891.01 427.17 952.33 429.48 964.2 441.71 919.82 465.18Q919.79 465.19 919.79 465.19" opacity="0.27"></path><path d="M886.11 590.85C808.2 611.98 710.25 637.89 612.29 666.77 529.81 694.18 475.87 721.64 455.2 745.44 468.48 763.36 507.64 772.31 561.61 768.23 626.51 753.84 686.61 723.59 734.17 677.83 771.59 626.99 790.34 569.15 792.09 512.88 781.8 472.64 759.63 451.64 730.73 458.54 696.09 497.52 660.52 565.87 627.83 656.07 593.89 753.66 565.44 843.51 544.32 907.3 523.19 932.71 510.4 913.66 504.5 856.93 497.35 773.51 494.49 678.25 492.51 586.94 484.81 509.27 472.18 455.17 449.92 426.99 415.61 424.63 366.53 442.55 301.43 472.83 226.18 514.96 141.03 556.79 54.13 592.4 -50.87 638.58 -82.55 669.42 12.73 658.88 102.53 647.77 196.2 631.18 274.11 610.05 316.25 588.93 316.95 564.27 279.84 535.55 210.95 505.4 128.51 468.67 48.98 423.93 -20.2 375.48 -63.72 317.29 -77.99 250.24 -65.63 182.08 -27.97 109.92 26.74 40.1 94.97 -17.86 167.08 -60.84 236.17 -80.48 304.86 -74.31 364.89 -39.16 415.04 23.01 461.55 98.83 499.68 182.06 530.75 257.34 560.37 305.93 585.49 320.71 606.62 295.32 627.74 231.54 643.87 145.98 654.09 56.53 663.01 -53.68 627.09 -76.8 578.34 5.39 541.82 83.65 500.03 166.54 459.49 245.08 432.46 318.53 419.85 379.11 429.48 426.06 465.75 462.69 528.21 488.53 612.89 507.22 707.9 520.03 802.36 531.01 879.41 543.43 924.67 554.39 928.25 569.73 886.11 590.85Q886.11 590.85 886.11 590.85" opacity="0.35"></path><path d="M851.78 624.86C783.72 643.63 698.28 660.56 609.82 674.61 529.3 687.42 467.43 695.04 429.71 695.41 418.2 691.89 430.21 678.45 459.56 654 504.51 625.35 553.9 586.86 600.59 541.41 646.72 499.29 682.29 458.82 705.65 426.98 722.39 413.05 727.46 418.31 723.12 446.88 714.12 498.64 699.38 570.42 681.59 655.03 662.46 741.17 642.84 818.31 624.06 873.43 605.28 898.12 588.24 887.35 571.96 845.4 554.33 779.37 534.91 698.86 511.37 615.4 483.17 535.96 447.17 469.83 401.49 421.38 349.2 391.35 286.67 379.54 215.92 382.05 144.62 398.29 72.97 420.95 8.46 444.71 -40.43 472.91 -69.28 496.42 -71.53 512.64 -47.58 528.72 3.6 536.24 76.87 534.78 158.09 532.87 239.72 522.62 307.78 503.84 347.52 485.06 354.88 458.64 331.65 425.14 280.63 391.19 214.08 349.51 143.62 300.88 73.84 252.12 18.35 197.69 -17.58 140.55 -35.46 87.85 -31.53 38.24 -9.6 -2.61 27.13 -29.73 74.1 -40.19 125.39 -29.7 181.96 -0.8 236.53 48.47 285.81 114.15 335.27 183.84 377.78 253.66 412.39 312.45 446.59 347.16 473.39 354.12 492.17 329.43 510.96 274.31 520.82 200.97 522.04 122.08 522.85 44.72 514.5 -16.37 497.58 -54.37 480.85 -69.17 457.2 -57.6 429.56 -24.11 407.21 27.27 387.2 90 375.07 156.73 377.74 226.8 396.07 292.24 433.49 349.84 488.98 403.23 561.31 447.59 644.85 483.66 729.07 515.83 806.31 542.36 864.59 564.97 895.07 586.33 891.53 606.07 851.81 624.85Q851.78 624.86 851.78 624.86" opacity="0.56"></path><path d="M817.81 550.53C686.45 583.39 532.4 589.76 421.62 567.36 381.2 540.27 407.38 484.34 464.42 417.39 542.87 380.3 599.73 382.43 622.66 450.49 637.1 576.22 624.82 727.85 591.96 839.42 559.1 860.21 508.76 779.84 437.38 646.45 357.5 503.78 249.36 397.89 127.83 342.77 27.73 332.29 -33.3 347.05 -16.97 360.21 69.72 381.65 210.45 380.39 341.81 347.53 388.78 314.67 340.98 253.32 238.21 174.92 74 71.79 62.9 53.75 160.6 207.86 237.76 317.16 298.96 384.21 331.82 363.42 364.68 251.85 366.09 113.54 345.88 11.9 335.25 -32.06 326.29 0.64 346.62 80.8 412.68 190.83 529.48 298.04 676.81 382.07 803.66 461.42 864.78 517.67 817.81 550.53Q817.81 550.53 817.81 550.53" opacity="0.62"></path><path d="M783.79 403.85C674.3 432.01 540.8 431.89 429.08 408.63 349.55 372.44 420.34 357.14 466.6 466.85 491.88 585.96 491.92 713.75 463.75 805.41 435.58 829.69 381.88 776.7 307.79 675.49 234.31 552.12 147.17 440.1 66.39 358.93 14.43 304.82 3.95 277.53 53.14 262.21 144.22 256.89 266.3 244.61 375.79 216.45 422.62 188.28 399.42 146.9 328.33 103.4 226.58 69.91 138.75 53.24 86.45 70.43 59.92 114.68 69.22 196.82 98.16 299.53 137.78 380.11 177.37 421.68 205.54 397.43 233.71 305.78 247.79 189.4 256.97 90.92 276.84 23.09 311.49 10.48 374.93 41.95 464.15 104.66 581.85 181.01 704.24 249.81 795.99 321.88 830.62 375.67 783.82 403.84Q783.79 403.85 783.79 403.85" opacity="0.60"></path><path d="M749.79 255.26C661.47 278.73 551.41 284.5 449.06 278.95 366.55 279.4 315.9 280.81 293.8 296.03 295.73 334.07 307.84 399.93 315.97 492.36 329.13 596.16 327.04 698.63 303.57 771.41 280.1 796.98 237.47 767.05 183.63 697.88 134.82 603.72 86.08 505.31 53.38 420.61 44.73 346.04 70.48 291.43 135.78 253.52 220.92 222.43 321.47 197.18 409.79 173.71 454.19 150.24 450.33 130.76 409.25 121.18 337.59 118.41 263.74 136.39 206.19 180.19 156.45 234.13 132.56 307.63 130.97 384.58 136.15 436.56 153.23 456.98 176.7 431.43 200.17 358.66 227.81 265.7 263.3 179.1 305.57 103.86 366.08 62.89 446.58 55.61 534.9 71.15 633.64 106.38 722.51 146.6 780.81 192.83 794.2 231.78 749.82 255.25Q749.79 255.26 749.79 255.26" opacity="0.68"></path><path d="M715.93 176.26C647.94 195.04 562.76 210.57 477.74 226.18 398.37 246.45 335.1 274.94 290.77 316.61 260.45 370.02 242.33 440.46 229.61 522.67 221.66 605.17 210.37 682.23 191.59 737.36 172.81 762.06 148.33 750.01 123.73 709.53 103.91 648.09 92.72 576.14 98.44 506.69 118.15 436.54 161.5 377.17 227.11 332.2 298.37 289.7 375.94 258.56 443.93 239.79 483.59 221.01 493.04 216.36 476.99 226.32 436.94 238.76 388.64 268.82 344.53 314.35 297.64 359.2 265.13 411.22 250.4 458.91 237.74 485.62 240.74 490.06 259.52 465.36 278.3 410.23 311.07 340.79 356.28 272.04 403.55 203.59 465.37 153.08 536.87 124.28 605.59 107.22 673.8 108.04 727.62 120.31 757.43 137.23 755.59 157.48 715.93 176.26Q715.93 176.26 715.93 176.26" opacity="0.59"></path><path d="M681.79 204.97C572.3 233.14 439.34 291.5 340.15 381.4 261.05 484.55 212.31 611.75 184.14 703.41 155.97 727.68 153.72 672.82 195.9 590.28 258.17 490.49 368.3 411.18 477.79 383.02 524.62 354.85 510.2 383.15 472.86 446.03 413.43 491.65 384.81 523.68 412.98 499.41 441.15 407.75 520.77 303.38 617.11 237.15 691.37 184.17 728.62 176.8 681.79 204.97Q681.79 204.97 681.79 204.97" opacity="0.81"></path><path d="M647.82 327.45C494.09 365.01 322.31 537.05 284.76 669.4 247.2 684.63 358.09 571.92 511.82 534.36 556.69 496.81 522.15 548.63 559.71 533.4 597.26 401.05 692.69 289.9 647.82 327.45Q647.82 327.45 647.82 327.45" opacity="0.65"></path></g></svg>